<svg xmlns="http://www.w3.org/2000/svg" viewBox="0 0 1440 240" preserveAspectRatio="xMidYMax slice" width="1440" height="240">
  <defs>
    <linearGradient id="b" x1="0" y1="0" x2="0" y2="1">
      <stop offset="0" stop-color="#93b4ff"/>
      <stop offset="1" stop-color="#3b6fe0"/>
    </linearGradient>
  </defs>
  <g fill="url(#b)">
    <!-- left low buildings -->
    <rect x="20"  y="170" width="60"  height="70"/>
    <rect x="90"  y="150" width="48"  height="90"/>
    <rect x="148" y="180" width="54"  height="60"/>
    <rect x="212" y="130" width="40"  height="110"/>
    <rect x="262" y="165" width="58"  height="75"/>
    <!-- Hancock-style tall slab -->
    <rect x="335" y="60"  width="46"  height="180"/>
    <rect x="392" y="120" width="50"  height="120"/>
    <rect x="452" y="160" width="64"  height="80"/>
    <!-- mid cluster -->
    <rect x="528" y="140" width="44"  height="100"/>
    <rect x="582" y="110" width="38"  height="130"/>
    <!-- Prudential-style tower with antenna -->
    <rect x="632" y="50"  width="58"  height="190"/>
    <rect x="657" y="20"  width="8"   height="30"/>
    <rect x="700" y="135" width="48"  height="105"/>
    <rect x="758" y="170" width="60"  height="70"/>
    <!-- right cluster -->
    <rect x="828" y="120" width="42"  height="120"/>
    <rect x="880" y="90"  width="52"  height="150"/>
    <rect x="942" y="150" width="46"  height="90"/>
    <rect x="998" y="100" width="40"  height="140"/>
    <rect x="1048" y="165" width="56" height="75"/>
    <rect x="1114" y="130" width="44" height="110"/>
    <rect x="1168" y="175" width="60" height="65"/>
    <rect x="1238" y="145" width="48" height="95"/>
    <rect x="1296" y="120" width="40" height="120"/>
    <rect x="1346" y="170" width="74" height="70"/>
  </g>
</svg>
