<svg xmlns="http://www.w3.org/2000/svg" viewBox="0 0 1440 240" preserveAspectRatio="xMidYMin slice" width="1440" height="240">
  <g fill="#9cbcff">
    <circle cx="60"   cy="40"  r="2.5"/>
    <circle cx="140"  cy="90"  r="1.8"/>
    <circle cx="210"  cy="30"  r="2.2"/>
    <circle cx="300"  cy="70"  r="1.5"/>
    <circle cx="370"  cy="120" r="2.4"/>
    <circle cx="450"  cy="50"  r="1.8"/>
    <circle cx="520"  cy="100" r="2.6"/>
    <circle cx="600"  cy="36"  r="1.6"/>
    <circle cx="680"  cy="86"  r="2.2"/>
    <circle cx="760"  cy="130" r="1.7"/>
    <circle cx="840"  cy="44"  r="2.5"/>
    <circle cx="910"  cy="96"  r="1.6"/>
    <circle cx="980"  cy="60"  r="2.3"/>
    <circle cx="1060" cy="110" r="1.8"/>
    <circle cx="1130" cy="38"  r="2.6"/>
    <circle cx="1200" cy="88"  r="1.6"/>
    <circle cx="1280" cy="56"  r="2.2"/>
    <circle cx="1360" cy="120" r="1.9"/>
    <circle cx="1410" cy="44"  r="2.4"/>
  </g>
  <g fill="#bcd2ff">
    <circle cx="100"  cy="150" r="1.4"/>
    <circle cx="260"  cy="160" r="1.3"/>
    <circle cx="420"  cy="180" r="1.5"/>
    <circle cx="560"  cy="150" r="1.2"/>
    <circle cx="720"  cy="172" r="1.4"/>
    <circle cx="880"  cy="158" r="1.3"/>
    <circle cx="1040" cy="178" r="1.5"/>
    <circle cx="1180" cy="150" r="1.2"/>
    <circle cx="1340" cy="170" r="1.4"/>
  </g>
  <!-- a few twinkles -->
  <g stroke="#7aa0ff" stroke-width="1.4" stroke-linecap="round" opacity="0.85">
    <path d="M250,55 v-14 M250,55 v14 M250,55 h-14 M250,55 h14"/>
    <path d="M790,70 v-12 M790,70 v12 M790,70 h-12 M790,70 h12"/>
    <path d="M1230,48 v-12 M1230,48 v12 M1230,48 h-12 M1230,48 h12"/>
  </g>
</svg>
